<svg width="24" height="24" viewBox="0 0 24 24" fill="none" xmlns="http://www.w3.org/2000/svg">
<path d="M11.083 5.10403C11.433 4.30403 12.568 4.30403 12.917 5.10403L14.669 9.12603C14.7416 9.29242 14.8582 9.43589 15.0062 9.54107C15.1542 9.64624 15.328 9.70914 15.509 9.72303L19.972 10.065C20.872 10.134 21.227 11.265 20.528 11.836L17.198 14.559C17.0513 14.679 16.9418 14.8383 16.8821 15.0181C16.8224 15.198 16.8151 15.3911 16.861 15.575L17.891 19.694C18.105 20.552 17.181 21.246 16.417 20.8L12.504 18.519C12.351 18.4298 12.1771 18.3827 12 18.3827C11.8229 18.3827 11.649 18.4298 11.496 18.519L7.58299 20.8C6.81899 21.246 5.89499 20.552 6.10899 19.694L7.13899 15.575C7.18444 15.3911 7.1767 15.1981 7.11668 15.0184C7.05667 14.8387 6.94684 14.6797 6.79999 14.56L3.46999 11.837C2.77199 11.266 3.12799 10.135 4.02699 10.066L8.48899 9.72403C8.67001 9.71014 8.84383 9.64724 8.99182 9.54207C9.1398 9.43689 9.25636 9.29342 9.32899 9.12703L11.082 5.10503L11.083 5.10403Z" stroke="#FBFF00" stroke-width="2"/>
</svg>
