<svg width="22" height="30" viewBox="0 0 22 30" fill="none" xmlns="http://www.w3.org/2000/svg">
<path d="M21.9738 13.7712C21.9359 13.611 21.859 13.4625 21.75 13.3391C21.641 13.2157 21.5031 13.1211 21.3488 13.0637L14.1475 10.3625L15.98 1.19625C16.0215 0.983272 15.9926 0.76258 15.8977 0.567473C15.8027 0.372365 15.6469 0.213429 15.4537 0.114648C15.2605 0.015866 15.0405 -0.0174009 14.8267 0.0198669C14.6129 0.0571348 14.4171 0.162915 14.2688 0.321246L0.268753 15.3212C0.155047 15.4411 0.0727901 15.5872 0.0293324 15.7465C-0.0141254 15.9059 -0.017431 16.0735 0.0197112 16.2345C0.0568534 16.3954 0.133286 16.5447 0.242182 16.6689C0.351077 16.7931 0.489043 16.8884 0.643753 16.9462L7.8475 19.6475L6.02 28.8037C5.97851 29.0167 6.00741 29.2374 6.10234 29.4325C6.19728 29.6276 6.3531 29.7866 6.54629 29.8853C6.73948 29.9841 6.95955 30.0174 7.1733 29.9801C7.38706 29.9429 7.58289 29.8371 7.73125 29.6787L21.7313 14.6787C21.8429 14.5589 21.9234 14.4135 21.9657 14.2552C22.008 14.097 22.0107 13.9308 21.9738 13.7712ZM8.67125 25.75L9.98 19.2025C10.0268 18.9703 9.98973 18.729 9.87527 18.5216C9.76081 18.3142 9.57644 18.1542 9.355 18.07L2.75 15.5887L13.3275 4.25625L12.02 10.8037C11.9732 11.036 12.0103 11.2773 12.1247 11.4847C12.2392 11.6921 12.4236 11.8521 12.645 11.9362L19.245 14.4112L8.67125 25.75Z" fill="#FBFF00"/>
</svg>
